<svg width="589" height="75" viewBox="0 0 589 75" fill="none" xmlns="http://www.w3.org/2000/svg">
<path d="M2 2V10.9365L19.4593 19.828M2 2H64.5783L82 10.9365M2 2L19.4593 10.9365M82 10.9365H19.4593M82 10.9365V19.828H19.4593M19.4593 10.9365V19.828M19.4593 19.828H2M2 19.828V28.795L19.4585 37.6996M2 19.828L19.4585 28.7958M19.4585 37.6996V28.7958M19.4585 37.6996H2.00081M19.4585 37.6996H65.3345M19.4585 28.7958H48.0041L65.3345 37.6996M65.3345 37.6996V46.6049H19.4585M19.4585 46.6049L2.00081 37.6996M19.4585 46.6049V55.5264M2.00081 37.6996L2.00084 46.6171L19.4585 55.5264M19.4585 55.5264H28.7225L46.134 64.4626M19.4585 55.5264H2.00081M46.134 64.4626H19.4586M46.134 64.4626V73.3842H19.4586M19.4586 64.4626L2.00081 55.5264M19.4586 64.4626V73.3842M2.00081 55.5264L2.00084 64.4634L19.4586 73.3842" stroke="white" stroke-width="3" stroke-linejoin="round"/>
<path d="M130 55.504V20.4789H153.19V26.5843H137.405V34.9302H151.651V41.0356H137.405V55.504H130Z" fill="white"/>
<path d="M206.411 37.9914C206.411 41.8109 205.687 45.0603 204.239 47.7397C202.802 50.419 200.841 52.4656 198.356 53.8793C195.882 55.2817 193.1 55.9829 190.01 55.9829C186.897 55.9829 184.104 55.276 181.63 53.8622C179.156 52.4485 177.2 50.4019 175.764 47.7226C174.327 45.0432 173.609 41.7995 173.609 37.9914C173.609 34.172 174.327 30.9226 175.764 28.2432C177.2 25.5639 179.156 23.523 181.63 22.1207C184.104 20.7069 186.897 20 190.01 20C193.1 20 195.882 20.7069 198.356 22.1207C200.841 23.523 202.802 25.5639 204.239 28.2432C205.687 30.9226 206.411 34.172 206.411 37.9914ZM198.903 37.9914C198.903 35.5173 198.533 33.4309 197.791 31.7321C197.062 30.0333 196.03 28.7449 194.696 27.867C193.362 26.9891 191.8 26.5501 190.01 26.5501C188.22 26.5501 186.658 26.9891 185.324 27.867C183.99 28.7449 182.952 30.0333 182.211 31.7321C181.482 33.4309 181.117 35.5173 181.117 37.9914C181.117 40.4656 181.482 42.552 182.211 44.2508C182.952 45.9496 183.99 47.238 185.324 48.1159C186.658 48.9938 188.22 49.4328 190.01 49.4328C191.8 49.4328 193.362 48.9938 194.696 48.1159C196.03 47.238 197.062 45.9496 197.791 44.2508C198.533 42.552 198.903 40.4656 198.903 37.9914Z" fill="white"/>
<path d="M249.584 20.4789H256.989V43.2247C256.989 45.7786 256.379 48.0133 255.159 49.9287C253.951 51.8442 252.257 53.3378 250.08 54.4095C247.902 55.4698 245.365 56 242.469 56C239.562 56 237.019 55.4698 234.842 54.4095C232.664 53.3378 230.971 51.8442 229.762 49.9287C228.554 48.0133 227.95 45.7786 227.95 43.2247V20.4789H235.355V42.5919C235.355 43.9259 235.646 45.1116 236.227 46.1492C236.82 47.1867 237.652 48.0019 238.724 48.5948C239.796 49.1876 241.044 49.4841 242.469 49.4841C243.906 49.4841 245.154 49.1876 246.215 48.5948C247.286 48.0019 248.113 47.1867 248.695 46.1492C249.287 45.1116 249.584 43.9259 249.584 42.5919V20.4789Z" fill="white"/>
<path d="M308.431 20.4789V55.504H302.035L286.797 33.4594H286.54V55.504H279.135V20.4789H285.634L300.752 42.5064H301.06V20.4789H308.431Z" fill="white"/>
<path d="M343.019 55.504H330.602V20.4789H343.121C346.644 20.4789 349.677 21.18 352.219 22.5824C354.762 23.9734 356.717 25.9743 358.085 28.5853C359.465 31.1962 360.155 34.3202 360.155 37.9572C360.155 41.6057 359.465 44.7411 358.085 47.3634C356.717 49.9857 354.751 51.9981 352.185 53.4005C349.631 54.8028 346.576 55.504 343.019 55.504ZM338.008 49.1591H342.711C344.9 49.1591 346.741 48.7715 348.235 47.9962C349.74 47.2095 350.868 45.9952 351.621 44.3534C352.385 42.7002 352.767 40.5682 352.767 37.9572C352.767 35.3691 352.385 33.2542 351.621 31.6124C350.868 29.9705 349.745 28.762 348.252 27.9867C346.758 27.2114 344.917 26.8238 342.728 26.8238H338.008V49.1591Z" fill="white"/>
<path d="M385.755 55.504H377.82L389.911 20.4789H399.454L411.528 55.504H403.593L394.819 28.4827H394.546L385.755 55.504ZM385.259 41.7368H404.003V47.5173H385.259V41.7368Z" fill="white"/>
<path d="M426.183 26.5843V20.4789H454.949V26.5843H444.226V55.504H436.906V26.5843H426.183Z" fill="white"/>
<path d="M483.145 20.4789V55.504H475.74V20.4789H483.145Z" fill="white"/>
<path d="M537.477 37.9914C537.477 41.8109 536.753 45.0603 535.305 47.7397C533.868 50.419 531.907 52.4656 529.422 53.8793C526.948 55.2817 524.166 55.9829 521.076 55.9829C517.963 55.9829 515.17 55.276 512.696 53.8622C510.222 52.4485 508.266 50.4019 506.83 47.7226C505.393 45.0432 504.675 41.7995 504.675 37.9914C504.675 34.172 505.393 30.9226 506.83 28.2432C508.266 25.5639 510.222 23.523 512.696 22.1207C515.17 20.7069 517.963 20 521.076 20C524.166 20 526.948 20.7069 529.422 22.1207C531.907 23.523 533.868 25.5639 535.305 28.2432C536.753 30.9226 537.477 34.172 537.477 37.9914ZM529.969 37.9914C529.969 35.5173 529.599 33.4309 528.857 31.7321C528.128 30.0333 527.096 28.7449 525.762 27.867C524.428 26.9891 522.866 26.5501 521.076 26.5501C519.286 26.5501 517.724 26.9891 516.39 27.867C515.056 28.7449 514.018 30.0333 513.277 31.7321C512.548 33.4309 512.183 35.5173 512.183 37.9914C512.183 40.4656 512.548 42.552 513.277 44.2508C514.018 45.9496 515.056 47.238 516.39 48.1159C517.724 48.9938 519.286 49.4328 521.076 49.4328C522.866 49.4328 524.428 48.9938 525.762 48.1159C527.096 47.238 528.128 45.9496 528.857 44.2508C529.599 42.552 529.969 40.4656 529.969 37.9914Z" fill="white"/>
<path d="M588.312 20.4789V55.504H581.915L566.677 33.4594H566.421V55.504H559.016V20.4789H565.514L580.633 42.5064H580.941V20.4789H588.312Z" fill="white"/>
</svg>
