<svg width="82" height="72" viewBox="0 0 82 72" fill="none" xmlns="http://www.w3.org/2000/svg">
<path fill-rule="evenodd" clip-rule="evenodd" d="M80.2863 15.3379H18.9536V10.0494H80.2863V15.3379ZM74.0053 6.04938H17.4357L7.01175 0.713867H63.6037L74.0053 6.04938ZM0.714844 6.82351V1.98433L14.9536 9.27245V14.0749L0.714844 6.82351ZM56.6074 34.0074H18.9528V28.7061H46.289L56.6074 34.0074ZM0.714844 20.6137L14.9528 27.9272V32.7422L0.714844 25.4802V20.6137ZM16.9528 38.0074H62.8767V43.3103H17.4334L7.03777 38.0074H16.9528ZM0.715701 39.2728L14.9528 46.5353V51.3642L0.715716 44.0983L0.715701 39.2728ZM17.4349 61.9654L7.0122 56.6302H16.9528H26.147L36.5422 61.9654H17.4349ZM18.9528 65.9654H42.8191V71.2853H18.9528V65.9654ZM0.715716 62.7422L14.9528 70.0173V65.1884L0.715701 57.9008L0.715716 62.7422Z" fill="white"/>
</svg>
