<svg width="343" height="138" viewBox="0 0 343 138" fill="none" xmlns="http://www.w3.org/2000/svg">
<path d="M0 137.54V111.358H17.3352V115.922H5.53551V122.161H16.1847V126.724H5.53551V137.54H0Z" fill="white"/>
<path d="M57.1183 124.449C57.1183 127.304 56.5771 129.733 55.4947 131.736C54.4208 133.739 52.9549 135.268 51.0969 136.325C49.2475 137.374 47.168 137.898 44.8583 137.898C42.5316 137.898 40.4435 137.369 38.5941 136.313C36.7447 135.256 35.283 133.726 34.2092 131.723C33.1353 129.72 32.5984 127.295 32.5984 124.449C32.5984 121.594 33.1353 119.165 34.2092 117.162C35.283 115.159 36.7447 113.634 38.5941 112.585C40.4435 111.528 42.5316 111 44.8583 111C47.168 111 49.2475 111.528 51.0969 112.585C52.9549 113.634 54.4208 115.159 55.4947 117.162C56.5771 119.165 57.1183 121.594 57.1183 124.449ZM51.506 124.449C51.506 122.599 51.229 121.04 50.6751 119.77C50.1296 118.5 49.3583 117.537 48.3611 116.881C47.364 116.224 46.1964 115.896 44.8583 115.896C43.5202 115.896 42.3526 116.224 41.3555 116.881C40.3583 117.537 39.5827 118.5 39.0288 119.77C38.4833 121.04 38.2106 122.599 38.2106 124.449C38.2106 126.298 38.4833 127.858 39.0288 129.128C39.5827 130.398 40.3583 131.361 41.3555 132.017C42.3526 132.673 43.5202 133.001 44.8583 133.001C46.1964 133.001 47.364 132.673 48.3611 132.017C49.3583 131.361 50.1296 130.398 50.6751 129.128C51.229 127.858 51.506 126.298 51.506 124.449Z" fill="white"/>
<path d="M89.3906 111.358H94.9261V128.361C94.9261 130.27 94.4702 131.94 93.5582 133.372C92.6548 134.804 91.3892 135.92 89.7614 136.722C88.1335 137.514 86.2372 137.911 84.0724 137.911C81.8992 137.911 79.9986 137.514 78.3707 136.722C76.7429 135.92 75.4773 134.804 74.5739 133.372C73.6705 131.94 73.2188 130.27 73.2188 128.361V111.358H78.7543V127.888C78.7543 128.885 78.9716 129.771 79.4062 130.547C79.8494 131.322 80.4716 131.932 81.2727 132.375C82.0739 132.818 83.0071 133.04 84.0724 133.04C85.1463 133.04 86.0796 132.818 86.8722 132.375C87.6733 131.932 88.2912 131.322 88.7259 130.547C89.169 129.771 89.3906 128.885 89.3906 127.888V111.358Z" fill="white"/>
<path d="M133.38 111.358V137.54H128.598L117.208 121.061H117.016V137.54H111.48V111.358H116.338L127.64 127.824H127.87V111.358H133.38Z" fill="white"/>
<path d="M159.234 137.54H149.953V111.358H159.311C161.945 111.358 164.212 111.882 166.112 112.93C168.013 113.97 169.474 115.466 170.497 117.418C171.528 119.369 172.044 121.705 172.044 124.423C172.044 127.151 171.528 129.494 170.497 131.455C169.474 133.415 168.004 134.919 166.087 135.967C164.178 137.016 161.893 137.54 159.234 137.54ZM155.489 132.797H159.004C160.641 132.797 162.017 132.507 163.134 131.928C164.259 131.339 165.102 130.432 165.665 129.205C166.236 127.969 166.521 126.375 166.521 124.423C166.521 122.489 166.236 120.908 165.665 119.68C165.102 118.453 164.263 117.55 163.146 116.97C162.03 116.391 160.653 116.101 159.017 116.101H155.489V132.797Z" fill="white"/>
<path d="M191.181 137.54H185.249L194.287 111.358H201.421L210.446 137.54H204.515L197.956 117.341H197.752L191.181 137.54ZM190.81 127.249H204.821V131.57H190.81V127.249Z" fill="white"/>
<path d="M221.401 115.922V111.358H242.904V115.922H234.888V137.54H229.417V115.922H221.401Z" fill="white"/>
<path d="M263.981 111.358V137.54H258.445V111.358H263.981Z" fill="white"/>
<path d="M304.595 124.449C304.595 127.304 304.054 129.733 302.971 131.736C301.897 133.739 300.431 135.268 298.574 136.325C296.724 137.374 294.645 137.898 292.335 137.898C290.008 137.898 287.92 137.369 286.071 136.313C284.221 135.256 282.76 133.726 281.686 131.723C280.612 129.72 280.075 127.295 280.075 124.449C280.075 121.594 280.612 119.165 281.686 117.162C282.76 115.159 284.221 113.634 286.071 112.585C287.92 111.528 290.008 111 292.335 111C294.645 111 296.724 111.528 298.574 112.585C300.431 113.634 301.897 115.159 302.971 117.162C304.054 119.165 304.595 121.594 304.595 124.449ZM298.983 124.449C298.983 122.599 298.706 121.04 298.152 119.77C297.606 118.5 296.835 117.537 295.838 116.881C294.841 116.224 293.673 115.896 292.335 115.896C290.997 115.896 289.829 116.224 288.832 116.881C287.835 117.537 287.059 118.5 286.505 119.77C285.96 121.04 285.687 122.599 285.687 124.449C285.687 126.298 285.96 127.858 286.505 129.128C287.059 130.398 287.835 131.361 288.832 132.017C289.829 132.673 290.997 133.001 292.335 133.001C293.673 133.001 294.841 132.673 295.838 132.017C296.835 131.361 297.606 130.398 298.152 129.128C298.706 127.858 298.983 126.298 298.983 124.449Z" fill="white"/>
<path d="M342.594 111.358V137.54H337.813L326.423 121.061H326.231V137.54H320.695V111.358H325.553L336.854 127.824H337.085V111.358H342.594Z" fill="white"/>
<path d="M131 2V10.9365L148.459 19.828M131 2H193.578L211 10.9365M131 2L148.459 10.9365M211 10.9365H148.459M211 10.9365V19.828H148.459M148.459 10.9365V19.828M148.459 19.828H131M131 19.828V28.795L148.459 37.6996M131 19.828L148.459 28.7958M148.459 37.6996V28.7958M148.459 37.6996H131.001M148.459 37.6996H194.334M148.459 28.7958H177.004L194.334 37.6996M194.334 37.6996V46.6049H148.459M148.459 46.6049L131.001 37.6996M148.459 46.6049V55.5264M131.001 37.6996L131.001 46.6171L148.459 55.5264M148.459 55.5264H157.723L175.134 64.4626M148.459 55.5264H131.001M175.134 64.4626H148.459M175.134 64.4626V73.3842H148.459M148.459 64.4626L131.001 55.5264M148.459 64.4626V73.3842M131.001 55.5264L131.001 64.4634L148.459 73.3842" stroke="white" stroke-width="3.37802" stroke-linejoin="round"/>
</svg>
