<svg width="84" height="76" viewBox="0 0 84 76" fill="none" xmlns="http://www.w3.org/2000/svg">
<path d="M2 2V10.9365L19.4593 19.828M2 2H64.5783L82 10.9365M2 2L19.4593 10.9365M82 10.9365H19.4593M82 10.9365V19.828H19.4593M19.4593 10.9365V19.828M19.4593 19.828H2M2 19.828V28.795L19.4585 37.6996M2 19.828L19.4585 28.7958M19.4585 37.6996V28.7958M19.4585 37.6996H2.00081M19.4585 37.6996H65.3345M19.4585 28.7958H48.0041L65.3345 37.6996M65.3345 37.6996V46.6049H19.4585M19.4585 46.6049L2.00081 37.6996M19.4585 46.6049V55.5264M2.00081 37.6996L2.00084 46.6171L19.4585 55.5264M19.4585 55.5264H28.7225L46.134 64.4626M19.4585 55.5264H2.00081M46.134 64.4626H19.4586M46.134 64.4626V73.3842H19.4586M19.4586 64.4626L2.00081 55.5264M19.4586 64.4626V73.3842M2.00081 55.5264L2.00084 64.4634L19.4586 73.3842" stroke="white" stroke-width="3.37802" stroke-linejoin="round"/>
</svg>
