<svg width="343" height="136" viewBox="0 0 343 136" fill="none" xmlns="http://www.w3.org/2000/svg">
<path fill-rule="evenodd" clip-rule="evenodd" d="M210.286 15.3379H148.954V10.0494H210.286V15.3379ZM204.005 6.04938H147.436L137.012 0.713867H193.604L204.005 6.04938ZM130.715 6.82351V1.98433L144.954 9.27245V14.0749L130.715 6.82351ZM186.607 34.0074H148.953V28.7061H176.289L186.607 34.0074ZM130.715 20.6137L144.953 27.9272V32.7422L130.715 25.4802V20.6137ZM146.953 38.0074H192.877V43.3103H147.433L137.038 38.0074H146.953ZM130.716 39.2728L144.953 46.5353V51.3642L130.716 44.0983L130.716 39.2728ZM147.435 61.9654L137.012 56.6302H146.953H156.147L166.542 61.9654H147.435ZM148.953 65.9654H172.819V71.2853H148.953V65.9654ZM130.716 62.7422L144.953 70.0173V65.1884L130.716 57.9008L130.716 62.7422Z" fill="white"/>
<path d="M0 135.54V109.358H17.3352V113.922H5.53551V120.161H16.1847V124.724H5.53551V135.54H0Z" fill="white"/>
<path d="M57.1183 122.449C57.1183 125.304 56.5771 127.733 55.4947 129.736C54.4208 131.739 52.9549 133.268 51.0969 134.325C49.2475 135.374 47.168 135.898 44.8583 135.898C42.5316 135.898 40.4435 135.369 38.5941 134.313C36.7447 133.256 35.283 131.726 34.2092 129.723C33.1353 127.72 32.5984 125.295 32.5984 122.449C32.5984 119.594 33.1353 117.165 34.2092 115.162C35.283 113.159 36.7447 111.634 38.5941 110.585C40.4435 109.528 42.5316 109 44.8583 109C47.168 109 49.2475 109.528 51.0969 110.585C52.9549 111.634 54.4208 113.159 55.4947 115.162C56.5771 117.165 57.1183 119.594 57.1183 122.449ZM51.506 122.449C51.506 120.599 51.229 119.04 50.6751 117.77C50.1296 116.5 49.3583 115.537 48.3611 114.881C47.364 114.224 46.1964 113.896 44.8583 113.896C43.5202 113.896 42.3526 114.224 41.3555 114.881C40.3583 115.537 39.5827 116.5 39.0288 117.77C38.4833 119.04 38.2106 120.599 38.2106 122.449C38.2106 124.298 38.4833 125.858 39.0288 127.128C39.5827 128.398 40.3583 129.361 41.3555 130.017C42.3526 130.673 43.5202 131.001 44.8583 131.001C46.1964 131.001 47.364 130.673 48.3611 130.017C49.3583 129.361 50.1296 128.398 50.6751 127.128C51.229 125.858 51.506 124.298 51.506 122.449Z" fill="white"/>
<path d="M89.3906 109.358H94.9261V126.361C94.9261 128.27 94.4702 129.94 93.5582 131.372C92.6548 132.804 91.3892 133.92 89.7614 134.722C88.1335 135.514 86.2372 135.911 84.0724 135.911C81.8992 135.911 79.9986 135.514 78.3707 134.722C76.7429 133.92 75.4773 132.804 74.5739 131.372C73.6705 129.94 73.2188 128.27 73.2188 126.361V109.358H78.7543V125.888C78.7543 126.885 78.9716 127.771 79.4062 128.547C79.8494 129.322 80.4716 129.932 81.2727 130.375C82.0739 130.818 83.0071 131.04 84.0724 131.04C85.1463 131.04 86.0796 130.818 86.8722 130.375C87.6733 129.932 88.2912 129.322 88.7259 128.547C89.169 127.771 89.3906 126.885 89.3906 125.888V109.358Z" fill="white"/>
<path d="M133.38 109.358V135.54H128.598L117.208 119.061H117.016V135.54H111.48V109.358H116.338L127.64 125.824H127.87V109.358H133.38Z" fill="white"/>
<path d="M159.234 135.54H149.953V109.358H159.311C161.945 109.358 164.212 109.882 166.112 110.93C168.013 111.97 169.474 113.466 170.497 115.418C171.528 117.369 172.044 119.705 172.044 122.423C172.044 125.151 171.528 127.494 170.497 129.455C169.474 131.415 168.004 132.919 166.087 133.967C164.178 135.016 161.893 135.54 159.234 135.54ZM155.489 130.797H159.004C160.641 130.797 162.017 130.507 163.134 129.928C164.259 129.339 165.102 128.432 165.665 127.205C166.236 125.969 166.521 124.375 166.521 122.423C166.521 120.489 166.236 118.908 165.665 117.68C165.102 116.453 164.263 115.55 163.146 114.97C162.03 114.391 160.653 114.101 159.017 114.101H155.489V130.797Z" fill="white"/>
<path d="M191.181 135.54H185.249L194.287 109.358H201.421L210.446 135.54H204.515L197.956 115.341H197.752L191.181 135.54ZM190.81 125.249H204.821V129.57H190.81V125.249Z" fill="white"/>
<path d="M221.401 113.922V109.358H242.904V113.922H234.888V135.54H229.417V113.922H221.401Z" fill="white"/>
<path d="M263.981 109.358V135.54H258.445V109.358H263.981Z" fill="white"/>
<path d="M304.595 122.449C304.595 125.304 304.054 127.733 302.971 129.736C301.897 131.739 300.431 133.268 298.574 134.325C296.724 135.374 294.645 135.898 292.335 135.898C290.008 135.898 287.92 135.369 286.071 134.313C284.221 133.256 282.76 131.726 281.686 129.723C280.612 127.72 280.075 125.295 280.075 122.449C280.075 119.594 280.612 117.165 281.686 115.162C282.76 113.159 284.221 111.634 286.071 110.585C287.92 109.528 290.008 109 292.335 109C294.645 109 296.724 109.528 298.574 110.585C300.431 111.634 301.897 113.159 302.971 115.162C304.054 117.165 304.595 119.594 304.595 122.449ZM298.983 122.449C298.983 120.599 298.706 119.04 298.152 117.77C297.606 116.5 296.835 115.537 295.838 114.881C294.841 114.224 293.673 113.896 292.335 113.896C290.997 113.896 289.829 114.224 288.832 114.881C287.835 115.537 287.059 116.5 286.505 117.77C285.96 119.04 285.687 120.599 285.687 122.449C285.687 124.298 285.96 125.858 286.505 127.128C287.059 128.398 287.835 129.361 288.832 130.017C289.829 130.673 290.997 131.001 292.335 131.001C293.673 131.001 294.841 130.673 295.838 130.017C296.835 129.361 297.606 128.398 298.152 127.128C298.706 125.858 298.983 124.298 298.983 122.449Z" fill="white"/>
<path d="M342.594 109.358V135.54H337.813L326.423 119.061H326.231V135.54H320.695V109.358H325.553L336.854 125.824H337.085V109.358H342.594Z" fill="white"/>
</svg>
