<svg width="589" height="72" viewBox="0 0 589 72" fill="none" xmlns="http://www.w3.org/2000/svg">
<path fill-rule="evenodd" clip-rule="evenodd" d="M80.2863 15.3379H18.9536V10.0494H80.2863V15.3379ZM74.0053 6.04938H17.4357L7.01175 0.713867H63.6037L74.0053 6.04938ZM0.714844 6.82351V1.98433L14.9536 9.27245V14.0749L0.714844 6.82351ZM56.6074 34.0074H18.9528V28.7061H46.289L56.6074 34.0074ZM0.714844 20.6137L14.9528 27.9272V32.7422L0.714844 25.4802V20.6137ZM16.9528 38.0074H62.8767V43.3103H17.4334L7.03777 38.0074H16.9528ZM0.715701 39.2728L14.9528 46.5353V51.3642L0.715716 44.0983L0.715701 39.2728ZM17.4349 61.9654L7.0122 56.6302H16.9528H26.147L36.5422 61.9654H17.4349ZM18.9528 65.9654H42.8191V71.2853H18.9528V65.9654ZM0.715716 62.7422L14.9528 70.0173V65.1884L0.715701 57.9008L0.715716 62.7422Z" fill="white"/>
<path d="M130 53.504V18.4789H153.19V24.5843H137.405V32.9302H151.651V39.0356H137.405V53.504H130Z" fill="white"/>
<path d="M206.411 35.9914C206.411 39.8109 205.687 43.0603 204.239 45.7397C202.802 48.419 200.841 50.4656 198.356 51.8793C195.882 53.2817 193.1 53.9829 190.01 53.9829C186.897 53.9829 184.104 53.276 181.63 51.8622C179.156 50.4485 177.2 48.4019 175.764 45.7226C174.327 43.0432 173.609 39.7995 173.609 35.9914C173.609 32.172 174.327 28.9226 175.764 26.2432C177.2 23.5639 179.156 21.523 181.63 20.1207C184.104 18.7069 186.897 18 190.01 18C193.1 18 195.882 18.7069 198.356 20.1207C200.841 21.523 202.802 23.5639 204.239 26.2432C205.687 28.9226 206.411 32.172 206.411 35.9914ZM198.903 35.9914C198.903 33.5173 198.533 31.4309 197.791 29.7321C197.062 28.0333 196.03 26.7449 194.696 25.867C193.362 24.9891 191.8 24.5501 190.01 24.5501C188.22 24.5501 186.658 24.9891 185.324 25.867C183.99 26.7449 182.952 28.0333 182.211 29.7321C181.482 31.4309 181.117 33.5173 181.117 35.9914C181.117 38.4656 181.482 40.552 182.211 42.2508C182.952 43.9496 183.99 45.238 185.324 46.1159C186.658 46.9938 188.22 47.4328 190.01 47.4328C191.8 47.4328 193.362 46.9938 194.696 46.1159C196.03 45.238 197.062 43.9496 197.791 42.2508C198.533 40.552 198.903 38.4656 198.903 35.9914Z" fill="white"/>
<path d="M249.584 18.4789H256.989V41.2247C256.989 43.7786 256.379 46.0133 255.159 47.9287C253.951 49.8442 252.257 51.3378 250.08 52.4095C247.902 53.4698 245.365 54 242.469 54C239.562 54 237.019 53.4698 234.842 52.4095C232.664 51.3378 230.971 49.8442 229.762 47.9287C228.554 46.0133 227.95 43.7786 227.95 41.2247V18.4789H235.355V40.5919C235.355 41.9259 235.646 43.1116 236.227 44.1492C236.82 45.1867 237.652 46.0019 238.724 46.5948C239.796 47.1876 241.044 47.4841 242.469 47.4841C243.906 47.4841 245.154 47.1876 246.215 46.5948C247.286 46.0019 248.113 45.1867 248.695 44.1492C249.287 43.1116 249.584 41.9259 249.584 40.5919V18.4789Z" fill="white"/>
<path d="M308.431 18.4789V53.504H302.035L286.797 31.4594H286.54V53.504H279.135V18.4789H285.634L300.752 40.5064H301.06V18.4789H308.431Z" fill="white"/>
<path d="M343.019 53.504H330.602V18.4789H343.121C346.644 18.4789 349.677 19.18 352.219 20.5824C354.762 21.9734 356.717 23.9743 358.085 26.5853C359.465 29.1962 360.155 32.3202 360.155 35.9572C360.155 39.6057 359.465 42.7411 358.085 45.3634C356.717 47.9857 354.751 49.9981 352.185 51.4005C349.631 52.8028 346.576 53.504 343.019 53.504ZM338.008 47.1591H342.711C344.9 47.1591 346.741 46.7715 348.235 45.9962C349.74 45.2095 350.868 43.9952 351.621 42.3534C352.385 40.7002 352.767 38.5682 352.767 35.9572C352.767 33.3691 352.385 31.2542 351.621 29.6124C350.868 27.9705 349.745 26.762 348.252 25.9867C346.758 25.2114 344.917 24.8238 342.728 24.8238H338.008V47.1591Z" fill="white"/>
<path d="M385.755 53.504H377.82L389.911 18.4789H399.454L411.528 53.504H403.593L394.819 26.4827H394.546L385.755 53.504ZM385.259 39.7368H404.003V45.5173H385.259V39.7368Z" fill="white"/>
<path d="M426.183 24.5843V18.4789H454.949V24.5843H444.226V53.504H436.906V24.5843H426.183Z" fill="white"/>
<path d="M483.145 18.4789V53.504H475.74V18.4789H483.145Z" fill="white"/>
<path d="M537.477 35.9914C537.477 39.8109 536.753 43.0603 535.305 45.7397C533.868 48.419 531.907 50.4656 529.422 51.8793C526.948 53.2817 524.166 53.9829 521.076 53.9829C517.963 53.9829 515.17 53.276 512.696 51.8622C510.222 50.4485 508.266 48.4019 506.83 45.7226C505.393 43.0432 504.675 39.7995 504.675 35.9914C504.675 32.172 505.393 28.9226 506.83 26.2432C508.266 23.5639 510.222 21.523 512.696 20.1207C515.17 18.7069 517.963 18 521.076 18C524.166 18 526.948 18.7069 529.422 20.1207C531.907 21.523 533.868 23.5639 535.305 26.2432C536.753 28.9226 537.477 32.172 537.477 35.9914ZM529.969 35.9914C529.969 33.5173 529.599 31.4309 528.857 29.7321C528.128 28.0333 527.096 26.7449 525.762 25.867C524.428 24.9891 522.866 24.5501 521.076 24.5501C519.286 24.5501 517.724 24.9891 516.39 25.867C515.056 26.7449 514.018 28.0333 513.277 29.7321C512.548 31.4309 512.183 33.5173 512.183 35.9914C512.183 38.4656 512.548 40.552 513.277 42.2508C514.018 43.9496 515.056 45.238 516.39 46.1159C517.724 46.9938 519.286 47.4328 521.076 47.4328C522.866 47.4328 524.428 46.9938 525.762 46.1159C527.096 45.238 528.128 43.9496 528.857 42.2508C529.599 40.552 529.969 38.4656 529.969 35.9914Z" fill="white"/>
<path d="M588.312 18.4789V53.504H581.915L566.677 31.4594H566.421V53.504H559.016V18.4789H565.514L580.633 40.5064H580.941V18.4789H588.312Z" fill="white"/>
</svg>
