<svg xmlns="http://www.w3.org/2000/svg" viewBox="0 0 24 24" id="python"><path d="M18.231 7.357h.001v-.004z"></path><path fill="#F2BB30" d="M20.699 17.748c1.666 0 2.282-1.162 2.861-2.904.6-1.794.574-3.52 0-5.818-.413-1.655-1.194-2.904-2.861-2.904h-2.147v2.541c0 1.971-1.672 3.632-3.578 3.632H9.252c-1.565 0-2.861 1.339-2.861 2.909v5.454c0 1.553 1.35 2.464 2.861 2.909 1.81.53 3.552.626 5.721 0 1.441-.418 2.861-1.26 2.861-2.909v-2.181h-5.717v-.728h8.582zm-5.367 2.181c.594 0 1.077.488 1.077 1.088 0 .606-.482 1.093-1.077 1.093a1.09 1.09 0 0 1-1.077-1.093 1.088 1.088 0 0 1 1.077-1.088z"></path><path fill="#35668F" d="M3.444 17.749H5.41v-2.615c0-1.891 1.634-3.558 3.578-3.558h5.721c1.591 0 2.861-1.312 2.861-2.909V3.209c0-1.553-1.307-2.717-2.861-2.978-1.918-.317-4.002-.299-5.721.006l.001-.001c-2.422.428-2.86 1.322-2.86 2.977v2.181h5.727v.729H3.98C2.314 6.123.856 7.125.402 9.027c-.525 2.181-.546 3.541 0 5.818.406 1.693 1.377 2.904 3.042 2.904zM8.63 3.937a1.084 1.084 0 0 1-1.077-1.088A1.089 1.089 0 0 1 8.63 1.756c.59 0 1.077.492 1.077 1.093S9.225 3.937 8.63 3.937z"></path></svg>