<svg width="48" height="48" viewBox="0 0 48 48" fill="none" xmlns="http://www.w3.org/2000/svg">
    <rect width="48" height="48" rx="24" fill="#0F172A"/>
    <path fill-rule="evenodd" clip-rule="evenodd" d="M18 20.829A3.005 3.005 0 0 1 16 18c0-1.66 1.34-3 3.001-3 1.651 0 3.002 1.34 3.002 3 0 1.3-.84 2.414-2.003 2.827v6.344c.852.3 1.53.976 1.832 1.829h5.173c.55 0 1-.45 1-1v-2.585l-1.29 1.295v-.01c-.4.39-1.03.39-1.42 0a.99.99 0 0 1-.001-1.42l3.001-3c.38-.4 1.02-.4 1.41-.01l3.002 3v-.001c.39.38.39 1.02 0 1.41h-.01c-.19.18-.45.29-.71.29l.021.03c-.27 0-.53-.11-.71-.29l-1.291-1.295V28c0 1.65-1.35 3-3.002 3H21.83a3.013 3.013 0 0 1-2.829 2A3.003 3.003 0 0 1 16 30c0-1.309.833-2.419 2-2.83V20.83zM19.001 29c.55 0 1 .44 1 1 0 .55-.45 1-1 1-.56 0-1-.45-1-1 0-.56.44-1 1-1zm-1-11c0-.56.44-1 1-1 .55 0 1 .44 1 1 0 .55-.45 1-1 1-.56 0-1-.45-1-1zm11.005 3a3.003 3.003 0 0 1-3.001-3c0-1.66 1.34-3 3.001-3 1.65 0 3.001 1.34 3.002 3 0 1.65-1.351 2.999-3.002 2.999V21zm0-4c-.56 0-1 .44-1 1 0 .55.44 1 1 1 .55 0 1-.45 1-1 0-.56-.45-1-1-1z" fill="url(#iwohip8w6a)"/>
    <defs>
        <linearGradient id="iwohip8w6a" x1="33" y1="24" x2="16" y2="24" gradientUnits="userSpaceOnUse">
            <stop stop-color="#FF9A9E"/>
            <stop offset="1" stop-color="#FAD0C4"/>
        </linearGradient>
    </defs>
</svg>
