<svg width="48" height="48" viewBox="0 0 48 48" fill="none" xmlns="http://www.w3.org/2000/svg">
    <rect width="48" height="48" rx="24" fill="#0F172A"/>
    <path fill-rule="evenodd" clip-rule="evenodd" d="M23.518 14.124a1 1 0 0 1 .849-.054l.115.054 2 1.1a1 1 0 0 1-.858 1.802l-.106-.05L24 16.141l-1.518.835a1 1 0 0 1-1.296-.295l-.062-.1a1 1 0 0 1 .295-1.295l.1-.062 2-1.1zm-4.642 3.794a1 1 0 0 0-1.358-.394l-1.987 1.092a.996.996 0 0 0-.53.902V22l.006.117A1 1 0 0 0 16 23l.117-.007A1 1 0 0 0 17 22v-.809l.518.285.106.05a1 1 0 0 0 .858-1.802l-.407-.224.407-.224.099-.062a1 1 0 0 0 .295-1.296zm-1.883 7.965A1 1 0 0 0 15 26v2.5l.007.12a1 1 0 0 0 .511.756l2 1.1.106.05a1 1 0 0 0 1.252-.444l.05-.105a1 1 0 0 0-.444-1.253L17 27.908V26l-.006-.117zm13.384-8.41a1 1 0 0 0-1.253.445l-.05.105a1 1 0 0 0 .444 1.253l.407.224-.407.224-.099.062a1 1 0 0 0 1.063 1.69l.518-.285V22l.007.117A1 1 0 0 0 33 22v-2.482a.994.994 0 0 0-.118-.489l-.01-.018a.994.994 0 0 0-.403-.394l-1.987-1.093-.105-.05zM32 25a1 1 0 0 1 .993.883L33 26v2.5a1 1 0 0 1-.41.808l-.101.064-2 1.12a1 1 0 0 1-1.076-1.682l.099-.063L31 27.913V26a1 1 0 0 1 .884-.993L32 25zm-5.124 6.418a1 1 0 0 0-1.358-.394l-.518.284V30.5l-.006-.117A1 1 0 0 0 23 30.5v.808l-.518-.284-.105-.05a1 1 0 0 0-.859 1.802l1.984 1.091a.995.995 0 0 0 .49.133H24a.996.996 0 0 0 .498-.133l1.984-1.09.099-.063a1 1 0 0 0 .295-1.296zm-1.358-9.394a1 1 0 0 1 1.063 1.69l-.099.062-1.482.815V26.5a1 1 0 0 1-1.993.117L23 26.5v-1.914l-1.488-.833a1 1 0 0 1 .872-1.797l.105.052 1.516.848 1.513-.832z" fill="url(#dartspi7wa)"/>
    <defs>
        <linearGradient id="dartspi7wa" x1="33" y1="24" x2="15" y2="24" gradientUnits="userSpaceOnUse">
            <stop stop-color="#ACE0F9"/>
            <stop offset="1" stop-color="#FFF1EB"/>
        </linearGradient>
    </defs>
</svg>
