<svg width="128" height="128" viewBox="0 0 128 128" fill="none" xmlns="http://www.w3.org/2000/svg">
<rect width="128" height="128" rx="17" fill="#1F277F"/>
<path d="M98.0163 29.3207C98.0163 21.4244 91.5921 15.0004 83.696 15.0004H61.0274C59.9943 15.0004 59.1572 15.8375 59.1572 16.8705C59.1572 17.9035 59.9943 18.7406 61.0274 18.7406H83.696C89.5298 18.7406 94.2761 23.4867 94.2761 29.3207C94.2761 35.1539 89.5313 39.8997 83.696 39.9008H41.3039C41.4834 39.737 41.659 39.5688 41.83 39.3961C44.465 36.737 45.9836 33.0653 45.9836 29.3205C45.9836 25.4055 44.3148 21.5768 41.4664 18.8959C41.4117 18.8445 41.3597 18.791 41.3043 18.7402H52.3012C53.3342 18.7402 54.1713 17.9031 54.1713 16.8701C54.1713 15.8371 53.3342 15 52.3012 15H31.6634C25.4269 15 19.7802 18.1875 16.5577 23.527C13.3355 28.8662 13.147 35.3481 16.0536 40.8657L39.2564 84.9156H32.6087C24.7126 84.9156 18.2884 91.3396 18.2884 99.2359C18.2884 107.132 24.7126 113.556 32.6087 113.556C32.614 113.556 32.6189 113.556 32.624 113.556H80.9852C82.0182 113.556 82.8553 112.719 82.8553 111.686C82.8553 110.653 82.018 109.816 80.985 109.816C80.985 109.816 42.7927 109.816 42.7898 109.816C43.1343 109.816 43.9701 108.695 44.1906 108.451C47.6568 104.62 49.106 99.0504 47.7928 94.0015C47.2582 91.9464 46.2125 90.0978 45.2301 88.2332L19.3622 39.1235C17.0718 34.7756 17.2204 29.6676 19.7597 25.4602C22.299 21.2526 26.749 18.7408 31.6634 18.7408C37.4972 18.7408 42.2435 23.4869 42.2435 29.3209C42.2435 35.1549 37.4974 39.901 31.6634 39.901C30.6304 39.901 29.7933 40.7381 29.7933 41.7713C29.7933 42.8044 30.6304 43.6415 31.6634 43.6415H82.5805L88.7807 55.1264C89.2714 56.0354 90.4053 56.3739 91.3145 55.8837C92.2237 55.393 92.5624 54.2585 92.0718 53.3499L86.663 43.3301C93.1399 41.96 98.0163 36.2 98.0163 29.3207ZM43.4554 92.9337C44.2215 94.6004 44.5842 96.3781 44.5461 98.1474C44.4082 104.567 39.0006 109.816 32.6054 109.816C26.7732 109.815 22.0284 105.069 22.0284 99.2365C22.0284 93.4027 26.7745 88.6564 32.6085 88.6564H41.2254C41.9716 90.0726 42.7972 91.4742 43.4554 92.9337Z" fill="white"/>
<path d="M112.1 90.4504L96.7829 62.0769C96.2919 61.1677 95.1575 60.829 94.2491 61.3196C93.3399 61.8103 93.0012 62.9448 93.4919 63.8534L108.809 92.2269C110.823 95.958 110.729 100.36 108.556 104.001C106.384 107.643 102.556 109.817 98.3153 109.817H89.7122C88.6791 109.817 87.842 110.654 87.842 111.687C87.842 112.72 88.6791 113.557 89.7122 113.557H98.3153C103.885 113.557 108.915 110.701 111.768 105.917C114.622 101.134 114.746 95.3515 112.1 90.4504Z" fill="white"/>
<path d="M98.0163 29.3207C98.0163 21.4244 91.5921 15.0004 83.696 15.0004H61.0274C59.9943 15.0004 59.1572 15.8375 59.1572 16.8705C59.1572 17.9035 59.9943 18.7406 61.0274 18.7406H83.696C89.5298 18.7406 94.2761 23.4867 94.2761 29.3207C94.2761 35.1539 89.5313 39.8997 83.696 39.9008H41.3039C41.4834 39.737 41.659 39.5688 41.83 39.3961C44.465 36.737 45.9836 33.0653 45.9836 29.3205C45.9836 25.4055 44.3148 21.5768 41.4664 18.8959C41.4117 18.8445 41.3597 18.791 41.3043 18.7402H52.3012C53.3342 18.7402 54.1713 17.9031 54.1713 16.8701C54.1713 15.8371 53.3342 15 52.3012 15H31.6634C25.4269 15 19.7802 18.1875 16.5577 23.527C13.3355 28.8662 13.147 35.3481 16.0536 40.8657L39.2564 84.9156H32.6087C24.7126 84.9156 18.2884 91.3396 18.2884 99.2359C18.2884 107.132 24.7126 113.556 32.6087 113.556C32.614 113.556 32.6189 113.556 32.624 113.556H80.9852C82.0182 113.556 82.8553 112.719 82.8553 111.686C82.8553 110.653 82.018 109.816 80.985 109.816C80.985 109.816 42.7927 109.816 42.7898 109.816C43.1343 109.816 43.9701 108.695 44.1906 108.451C47.6568 104.62 49.106 99.0504 47.7928 94.0015C47.2582 91.9464 46.2125 90.0978 45.2301 88.2332L19.3622 39.1235C17.0718 34.7756 17.2204 29.6676 19.7597 25.4602C22.299 21.2526 26.749 18.7408 31.6634 18.7408C37.4972 18.7408 42.2435 23.4869 42.2435 29.3209C42.2435 35.1549 37.4974 39.901 31.6634 39.901C30.6304 39.901 29.7933 40.7381 29.7933 41.7713C29.7933 42.8044 30.6304 43.6415 31.6634 43.6415H82.5805L88.7807 55.1264C89.2714 56.0354 90.4053 56.3739 91.3145 55.8837C92.2237 55.393 92.5624 54.2585 92.0718 53.3499L86.663 43.3301C93.1399 41.96 98.0163 36.2 98.0163 29.3207ZM43.4554 92.9337C44.2215 94.6004 44.5842 96.3781 44.5461 98.1474C44.4082 104.567 39.0006 109.816 32.6054 109.816C26.7732 109.815 22.0284 105.069 22.0284 99.2365C22.0284 93.4027 26.7745 88.6564 32.6085 88.6564H41.2254C41.9716 90.0726 42.7972 91.4742 43.4554 92.9337Z" stroke="white" stroke-width="4"/>
<path d="M112.1 90.4504L96.7829 62.0769C96.2919 61.1677 95.1575 60.829 94.2491 61.3196C93.3399 61.8103 93.0012 62.9448 93.4919 63.8534L108.809 92.2269C110.823 95.958 110.729 100.36 108.556 104.001C106.384 107.643 102.556 109.817 98.3153 109.817H89.7122C88.6791 109.817 87.842 110.654 87.842 111.687C87.842 112.72 88.6791 113.557 89.7122 113.557H98.3153C103.885 113.557 108.915 110.701 111.768 105.917C114.622 101.134 114.746 95.3515 112.1 90.4504Z" stroke="white" stroke-width="4"/>
<path d="M93 109H76C75.4477 109 75 109.448 75 110V111C75 111.552 75.4477 112 76 112H93C93.5523 112 94 111.552 94 111V110C94 109.448 93.5523 109 93 109Z" fill="white" stroke="white" stroke-width="2.4"/>
<path d="M93 111H76C75.4477 111 75 111.448 75 112V113C75 113.552 75.4477 114 76 114H93C93.5523 114 94 113.552 94 113V112C94 111.448 93.5523 111 93 111Z" fill="white" stroke="white" stroke-width="3.15"/>
<path d="M60.8 16H50C49.4477 16 49 16.4477 49 17V18.84C49 19.3923 49.4477 19.84 50 19.84H61.5046C61.6678 19.84 61.8 19.7078 61.8 19.5446V17C61.8 16.4477 61.3523 16 60.8 16Z" fill="white" stroke="white" stroke-width="1.8"/>
<path d="M62.8 13H52C51.4477 13 51 13.4477 51 14V18.4C51 18.9523 51.4477 19.4 52 19.4H63.3077C63.5796 19.4 63.8 19.1796 63.8 18.9077V14C63.8 13.4477 63.3523 13 62.8 13Z" fill="white"/>
<path d="M84.3754 51.1915L101.562 82.8508C101.831 83.3475 102.589 83.0855 102.494 82.5283L99.0139 62.0815C99.0047 62.0275 98.9867 61.9754 98.9606 61.9273L92.6515 50.2797C92.5591 50.109 92.3762 50.0073 92.1825 50.0187L84.7854 50.4538C84.4198 50.4753 84.2006 50.8696 84.3754 51.1915Z" fill="white"/>
</svg>
