<svg width="128" height="128" viewBox="0 0 128 128" fill="none" xmlns="http://www.w3.org/2000/svg">
<rect x="28" y="14" width="100" height="100" rx="17" fill="#1F277F"/>
<path d="M104.575 36.9068C104.575 30.7378 99.5563 25.7191 93.3875 25.7191H75.6776C74.8706 25.7191 74.2166 26.373 74.2166 27.1801C74.2166 27.9871 74.8706 28.6411 75.6776 28.6411H93.3875C97.9451 28.6411 101.653 32.349 101.653 36.9068C101.653 41.464 97.9463 45.1716 93.3875 45.1725H60.2687C60.4089 45.0445 60.5461 44.9131 60.6797 44.7782C62.7383 42.7007 63.9247 39.8322 63.9247 36.9067C63.9247 33.848 62.621 30.8569 60.3956 28.7624C60.3529 28.7223 60.3123 28.6805 60.269 28.6408H68.8603C69.6673 28.6408 70.3213 27.9868 70.3213 27.1798C70.3213 26.3727 69.6673 25.7188 68.8603 25.7188H52.7371C47.8648 25.7188 43.4533 28.209 40.9357 32.3804C38.4183 36.5517 38.2711 41.6157 40.5419 45.9263L58.6691 80.3403H53.4756C47.3067 80.3403 42.2878 85.3591 42.2878 91.5281C42.2878 97.697 47.3067 102.716 53.4756 102.716C53.4797 102.716 53.4835 102.716 53.4875 102.716H91.2697C92.0767 102.716 92.7307 102.062 92.7307 101.255C92.7307 100.448 92.0766 99.7939 91.2695 99.7939C91.2695 99.7939 61.4318 99.7939 61.4295 99.7939C61.6987 99.7939 62.3516 98.9177 62.5239 98.7275C65.2319 95.734 66.3641 91.3831 65.3381 87.4387C64.9205 85.8332 64.1035 84.3889 63.336 82.9322L43.1267 44.5652C41.3373 41.1685 41.4535 37.1778 43.4373 33.8908C45.4211 30.6036 48.8976 28.6413 52.7371 28.6413C57.2947 28.6413 61.0028 32.3492 61.0028 36.907C61.0028 41.4648 57.2949 45.1727 52.7371 45.1727C51.93 45.1727 51.276 45.8267 51.276 46.6339C51.276 47.4409 51.93 48.0949 52.7371 48.0949H92.516L97.36 57.0675C97.7433 57.7777 98.6292 58.0421 99.3395 57.6591C100.05 57.2758 100.314 56.3894 99.9311 55.6796L95.7054 47.8517C100.766 46.7813 104.575 42.2813 104.575 36.9068ZM61.9496 86.6045C62.548 87.9065 62.8314 89.2954 62.8016 90.6777C62.6939 95.6926 58.4692 99.7939 53.473 99.7939C48.9165 99.793 45.2097 96.0854 45.2097 91.5285C45.2097 86.9709 48.9176 83.2628 53.4754 83.2628H60.2073C60.7904 84.3692 61.4353 85.4642 61.9496 86.6045Z" fill="white"/>
<path d="M115.578 84.6643L103.612 62.4975C103.228 61.7873 102.342 61.5227 101.632 61.906C100.922 62.2893 100.657 63.1757 101.041 63.8855L113.007 86.0523C114.581 88.9672 114.507 92.4059 112.81 95.2508C111.112 98.0958 108.122 99.7942 104.809 99.7942H98.0876C97.2806 99.7942 96.6266 100.448 96.6266 101.255C96.6266 102.062 97.2806 102.716 98.0876 102.716H104.809C109.16 102.716 113.09 100.485 115.319 96.748C117.548 93.0106 117.645 88.4934 115.578 84.6643Z" fill="white"/>
<path d="M104.575 36.9068C104.575 30.7378 99.5563 25.7191 93.3875 25.7191H75.6776C74.8706 25.7191 74.2166 26.373 74.2166 27.1801C74.2166 27.9871 74.8706 28.6411 75.6776 28.6411H93.3875C97.9451 28.6411 101.653 32.349 101.653 36.9068C101.653 41.464 97.9463 45.1716 93.3875 45.1725H60.2687C60.4089 45.0445 60.5461 44.9131 60.6797 44.7782C62.7383 42.7007 63.9247 39.8322 63.9247 36.9067C63.9247 33.848 62.621 30.8569 60.3956 28.7624C60.3529 28.7223 60.3123 28.6805 60.269 28.6408H68.8603C69.6673 28.6408 70.3213 27.9868 70.3213 27.1798C70.3213 26.3727 69.6673 25.7188 68.8603 25.7188H52.7371C47.8648 25.7188 43.4533 28.209 40.9357 32.3804C38.4183 36.5517 38.2711 41.6157 40.5419 45.9263L58.6691 80.3403H53.4756C47.3067 80.3403 42.2878 85.3591 42.2878 91.5281C42.2878 97.697 47.3067 102.716 53.4756 102.716C53.4797 102.716 53.4835 102.716 53.4875 102.716H91.2697C92.0767 102.716 92.7307 102.062 92.7307 101.255C92.7307 100.448 92.0766 99.7939 91.2695 99.7939C91.2695 99.7939 61.4318 99.7939 61.4295 99.7939C61.6987 99.7939 62.3516 98.9177 62.5239 98.7275C65.2319 95.734 66.3641 91.3831 65.3381 87.4387C64.9205 85.8332 64.1035 84.3889 63.336 82.9322L43.1267 44.5652C41.3373 41.1685 41.4535 37.1778 43.4373 33.8908C45.4211 30.6036 48.8976 28.6413 52.7371 28.6413C57.2947 28.6413 61.0028 32.3492 61.0028 36.907C61.0028 41.4648 57.2949 45.1727 52.7371 45.1727C51.93 45.1727 51.276 45.8267 51.276 46.6339C51.276 47.4409 51.93 48.0949 52.7371 48.0949H92.516L97.36 57.0675C97.7433 57.7777 98.6292 58.0421 99.3395 57.6591C100.05 57.2758 100.314 56.3894 99.9311 55.6796L95.7054 47.8517C100.766 46.7813 104.575 42.2813 104.575 36.9068ZM61.9496 86.6045C62.548 87.9065 62.8314 89.2954 62.8016 90.6777C62.6939 95.6926 58.4692 99.7939 53.473 99.7939C48.9165 99.793 45.2097 96.0854 45.2097 91.5285C45.2097 86.9709 48.9176 83.2628 53.4754 83.2628H60.2073C60.7904 84.3692 61.4353 85.4642 61.9496 86.6045Z" stroke="white" stroke-width="4"/>
<path d="M115.578 84.6643L103.612 62.4975C103.228 61.7873 102.342 61.5227 101.632 61.906C100.922 62.2893 100.657 63.1757 101.041 63.8855L113.007 86.0523C114.581 88.9672 114.507 92.4059 112.81 95.2508C111.112 98.0958 108.122 99.7942 104.809 99.7942H98.0876C97.2806 99.7942 96.6266 100.448 96.6266 101.255C96.6266 102.062 97.2806 102.716 98.0876 102.716H104.809C109.16 102.716 113.09 100.485 115.319 96.748C117.548 93.0106 117.645 88.4934 115.578 84.6643Z" stroke="white" stroke-width="4"/>
<path d="M99.5 98H87C86.4477 98 86 98.4477 86 99V103.5C86 104.052 86.4477 104.5 87 104.5H99.5C100.052 104.5 100.5 104.052 100.5 103.5V99C100.5 98.4477 100.052 98 99.5 98Z" fill="white" stroke="white" stroke-width="0.4"/>
<path d="M77 24H69C68.4477 24 68 24.4477 68 25V28C68 28.5523 68.4477 29 69 29H77.6154C77.8278 29 78 28.8278 78 28.6154V25C78 24.4477 77.5523 24 77 24Z" fill="white" stroke="white" stroke-width="0.55"/>
<path d="M94.7701 56.5002L106.641 78.4841C106.908 78.9771 107.659 78.7264 107.576 78.1724L105.013 61.0852C105.004 61.0288 104.986 60.9743 104.959 60.924L101.208 53.8901C101.089 53.6673 100.823 53.5681 100.587 53.6587L95.0306 55.7959C94.7492 55.9042 94.6269 56.2349 94.7701 56.5002Z" fill="white"/>
<path d="M75 27H67C66.4477 27 66 27.4477 66 28V29C66 29.5523 66.4477 30 67 30H75.7692C75.8967 30 76 29.8967 76 29.7692V28C76 27.4477 75.5523 27 75 27Z" fill="white" stroke="white" stroke-width="1.3"/>
</svg>
